<svg width="35" height="34" viewBox="0 0 35 34" fill="none" xmlns="http://www.w3.org/2000/svg">
<g clip-path="url(#clip0_68_113)">
<path d="M14.5833 7.08333C14.5833 6.33189 14.8906 5.61122 15.4376 5.07986C15.9846 4.54851 16.7265 4.25 17.5 4.25C18.2736 4.25 19.0154 4.54851 19.5624 5.07986C20.1094 5.61122 20.4167 6.33189 20.4167 7.08333C22.0914 7.85262 23.5191 9.05013 24.5468 10.5475C25.5744 12.0449 26.1632 13.7857 26.25 15.5833V19.8333C26.3598 20.7141 26.6809 21.5575 27.1874 22.2957C27.694 23.0339 28.372 23.6462 29.1667 24.0833H5.83334C6.62805 23.6462 7.30598 23.0339 7.81257 22.2957C8.31917 21.5575 8.64026 20.7141 8.75001 19.8333V15.5833C8.83687 13.7857 9.42566 12.0449 10.4533 10.5475C11.4809 9.05013 12.9086 7.85262 14.5833 7.08333Z" stroke="#FF9500" stroke-width="2" stroke-linecap="round" stroke-linejoin="round"/>
<path d="M13.125 24.0833V25.5C13.125 26.6271 13.5859 27.7082 14.4064 28.5052C15.2269 29.3022 16.3397 29.75 17.5 29.75C18.6603 29.75 19.7731 29.3022 20.5936 28.5052C21.4141 27.7082 21.875 26.6271 21.875 25.5V24.0833" stroke="#FF9500" stroke-width="2" stroke-linecap="round" stroke-linejoin="round"/>
<path d="M30.625 9.52992C29.6684 7.50869 28.2794 5.70873 26.5504 4.25" stroke="#FF9500" stroke-width="2" stroke-linecap="round" stroke-linejoin="round"/>
<path d="M4.375 9.52992C5.33072 7.50896 6.71876 5.70902 8.44667 4.25" stroke="#FF9500" stroke-width="2" stroke-linecap="round" stroke-linejoin="round"/>
</g>
<defs>
<clipPath id="clip0_68_113">
<rect width="35" height="34" fill="white"/>
</clipPath>
</defs>
</svg>
